<?xml version="1.0" encoding="UTF-8"?>
<svg id="Layer_2" data-name="Layer 2" xmlns="http://www.w3.org/2000/svg" viewBox="0 0 417.41 123.04">
  <defs>
    <style>
      .cls-1 {
        fill: #bf1e2d;
      }

      .cls-2 {
        fill: #fff;
      }

      .cls-3 {
        fill: #c0e6e8;
      }
    </style>
  </defs>
  <g id="Layer_1-2" data-name="Layer 1">
    <polygon class="cls-1" points="69.57 69.57 0 90.5 0 20.93 69.57 0 69.57 69.57"/>
    <polygon class="cls-1" points="208.7 69.57 139.14 90.5 139.14 20.93 208.7 0 208.7 69.57"/>
    <polygon class="cls-1" points="347.84 69.57 278.27 90.5 278.27 20.93 347.84 0 347.84 69.57"/>
    <polygon class="cls-3" points="69.57 69.57 139.14 90.5 139.14 20.93 69.57 0 69.57 69.57"/>
    <polygon class="cls-3" points="208.7 69.57 278.27 90.5 278.27 20.93 208.7 0 208.7 69.57"/>
    <polygon class="cls-3" points="347.84 69.57 417.41 90.5 417.41 20.93 347.84 0 347.84 69.57"/>
    <path class="cls-2" d="M15.82,58.58l5.9-1.7c.8,7.91,5.76,10.71,14.81,8.1,6.63-1.92,11.39-6.32,11.39-12.3,0-6.59-5.76-6.47-14.34-5.88-8.44.56-15.68.22-15.68-8.86,0-7.94,6.57-14.61,16.29-17.42,12-3.46,16.96,1.22,18.16,9.75l-5.7,1.65c-.87-6.61-5.29-8.76-12.33-6.73-6.5,1.88-10.79,5.87-10.79,10.85,0,5.45,5.36,5.51,12.53,4.85,9.32-.81,17.83-.98,17.83,9.85,0,9.01-7.31,16.17-17.63,19.15-13.47,3.89-19.9-1.79-20.44-11.32Z"/>
    <path class="cls-1" d="M80.95,13.83l7.73,2.27,15.6,44.53.13.04,15.47-35.41,7.87,2.31v48.09l-5.78-1.7v-39.55l-.14-.04s-1.28,3.39-2.15,5.42l-13.18,29.63-4.64-1.36-13.18-37.36c-.94-2.7-2.15-6.68-2.15-6.68l-.13-.04v39.55l-5.45-1.6V13.83Z"/>
    <path class="cls-2" d="M154.89,29.38l38.07-11.16v5.31l-16.01,4.69v42.78l-6.05,1.77V30l-16.01,4.69v-5.31Z"/>
    <path class="cls-1" d="M222.94,15.99l6.05,1.67v20.45l25.69,7.08v-20.45l6.05,1.67v48.09l-6.05-1.67v-22.73l-25.69-7.08v22.73l-6.05-1.67V15.99Z"/>
    <path class="cls-2" d="M329.1,58.94l-.13.04c-3.5,5.87-8.68,9.71-15,11.44-13.52,3.7-22.6-4.1-22.6-18.69s8-27.41,23.14-31.56c11.17-3.06,18.03,1.11,19.57,10.11l-6.25,1.71c-1.35-6.02-5.85-8.62-13.45-6.54-11.57,3.17-16.81,13.28-16.81,24.58s6.86,17.76,16.61,15.09,14.53-10.71,14.53-18.78v-1.14l-14.46,3.96v-5.25l20.51-5.62v25.42l-3.9,1.07-1.75-5.84Z"/>
    <path class="cls-1" d="M364.38,47.41l5.92,1.69c.81,8.37,5.78,14.03,14.86,16.63,6.66,1.9,11.43.25,11.43-5.74,0-6.59-5.78-9.79-14.39-14.14-8.47-4.31-15.74-8.81-15.74-17.89,0-7.94,6.59-10.83,16.34-8.04,12.04,3.44,17.02,10.99,18.23,20.21l-5.72-1.64c-.87-7.11-5.31-11.81-12.38-13.83-6.52-1.87-10.83-.34-10.83,4.64,0,5.45,5.38,8.6,12.58,12.07,9.35,4.56,17.89,9.29,17.89,20.12,0,9.01-7.33,11.96-17.69,9-13.52-3.87-19.98-13.25-20.51-23.09Z"/>
    <path class="cls-1" d="M53.97,103.6c0-9.54,5.97-16.63,15.6-16.63s15.6,7.09,15.6,16.63-5.97,16.63-15.6,16.63-15.6-7.09-15.6-16.63ZM81.07,103.6c0-7.49-4.01-13.15-11.5-13.15s-11.5,5.66-11.5,13.15,4.01,13.11,11.5,13.11,11.5-5.62,11.5-13.11Z"/>
    <path class="cls-1" d="M201.12,87.65h21.62v3.52h-17.61v9.94h14.66v3.39h-14.66v15.02h-4.01v-31.87Z"/>
    <path class="cls-1" d="M339.69,91.17h21.62v3.52h-17.61v9.94h14.66v3.39h-14.66v15.02h-4.01v-31.87Z"/>
  </g>
</svg>