<?xml version="1.0" encoding="UTF-8"?>
<svg id="Layer_2" data-name="Layer 2" xmlns="http://www.w3.org/2000/svg" viewBox="0 0 332.6 158.16">
  <defs>
    <style>
      .cls-1 {
        fill: #c0e6e8;
      }
    </style>
  </defs>
  <g id="Layer_1-2" data-name="Layer 1">
    <path class="cls-1" d="M253.52,136.86c-33.02,0-50.7-24.77-50.7-57.78s17.68-57.97,50.7-57.97,50.7,24.95,50.7,57.97-17.68,57.78-50.7,57.78Z"/>
    <path class="cls-1" d="M332.6,138.21V19.94c0-11-8.92-19.94-19.94-19.94h-118.25c-11.02,0-19.94,8.95-19.94,19.94v118.27c0,11,8.92,19.94,19.94,19.94h118.25c11.02,0,19.94-8.95,19.94-19.94ZM184.74,79.08c0-42.06,26.33-73.3,68.78-73.3s68.78,31.24,68.78,73.3-26.33,73.3-68.78,73.3-68.78-31.25-68.78-73.3Z"/>
    <path class="cls-1" d="M158.13,138.21V19.94c0-11-8.92-19.94-19.94-19.94H19.94C8.92,0,0,8.95,0,19.94v118.27c0,11,8.92,19.94,19.94,19.94h118.25c11.02,0,19.94-8.95,19.94-19.94ZM57.48,143.78v-43.2H14.28v-43.2h43.2V14.19h43.2v43.2h43.2v43.2h-43.2v43.2h-43.2ZM100.68,57.39h-43.2v43.2h43.2v-43.2Z"/>
  </g>
</svg>